<svg id="Capa_1" enable-background="new 0 0 511.82 511.82" height="512" viewBox="0 0 511.82 511.82" width="512" xmlns="http://www.w3.org/2000/svg"><g><g><circle cx="256.41" cy="108.333" fill="#fcf6ed" r="85.793"/><path d="m227.522 137.735c-10.081 0-18.648-7.493-19.852-17.502-.406-3.378-.615-6.816-.615-10.303 0-42.438 30.83-77.665 71.303-84.558-7.881-2.079-16.212-3.066-24.807-2.786-44.417 1.446-80.729 37.177-82.835 81.568-2.338 49.282 36.926 89.972 85.694 89.972 4.945 0 9.783-.441 14.499-1.245-19.257-5.08-35.855-16.691-47.303-32.313l16.747 11.404 45.089 17.105c23.9-8.596 42.886-27.492 51.587-51.342z" fill="#fcf1de"/><path d="m447.784 439.649h-161.343v32.937c0 8.43 6.834 15.264 15.264 15.264h130.815c8.43 0 15.264-6.834 15.264-15.264z" fill="#fbe88c"/><path d="m447.784 439.649h-89.596-71.747v31.635 1.302c0 8.43 6.834 15.264 15.264 15.264h52.461c1.288-2.238 2.301-6.435 2.988-10.044.719-3.779 4.005-6.521 7.852-6.521h82.779v-31.636z" fill="#fbe372"/><path d="m238.141 188.242 6.421 25.253 31.615 235.438c.565 4.209 4.157 7.351 8.404 7.351h165.064c4.247 0 7.839-3.142 8.404-7.351l31.615-235.438 5.769-25.253z" fill="#c5e97d"/><path d="m227.017 439.96h-161.343v32.937c0 8.43 6.834 15.264 15.264 15.264h130.815c8.43 0 15.264-6.834 15.264-15.264z" fill="#fbe88c"/><path d="m65.674 439.96v31.635h78.346c5.364 0 9.99 3.716 11.198 8.942.674 2.914 1.547 5.852 2.595 7.624h53.94c8.43 0 15.264-6.834 15.264-15.264v-32.937z" fill="#fbe372"/><path d="m17.374 188.554 6.421 25.253 31.615 235.438c.565 4.209 4.157 7.351 8.404 7.351h165.064c4.247 0 7.839-3.142 8.404-7.351l31.615-235.438 5.769-25.253z" fill="#c5e97d"/><path d="m101.985 188.554h-84.611l6.421 25.253 2.686 20h61.227c12.099 0 22.332 8.951 23.942 20.942l26.034 193.872c.378 2.812 1.159 5.487 2.273 7.975h88.921c4.247 0 7.839-3.142 8.404-7.351l28.929-215.438 2.686-20 5.769-25.253z" fill="#a5d44d"/><path d="m409.696 188.242h-171.555l6.421 25.253 31.615 235.438c.565 4.209 4.157 7.351 8.404 7.351h87.406c1.04-2.399 1.769-4.97 2.132-7.665l26.415-196.713c1.416-10.542 10.412-18.411 21.048-18.411h65.398l2.686-20 5.769-25.253z" fill="#a5d44d"/><path d="m343.188 435.912h-174.576v36.891c0 8.43 6.834 15.264 15.264 15.264h144.049c8.43 0 15.264-6.834 15.264-15.264v-36.891z" fill="#fcf0b6"/><g fill="#fbe88c"><path d="m493.706 213.496h-253.187c-6.767 0-12.252-5.486-12.252-12.252v-11.052c0-6.767 5.486-12.252 12.252-12.252h253.187c6.767 0 12.252 5.486 12.252 12.252v11.052c.001 6.766-5.485 12.252-12.252 12.252z"/><path d="m272.939 213.807h-253.187c-6.767 0-12.252-5.486-12.252-12.252v-11.052c0-6.767 5.486-12.252 12.252-12.252h253.187c6.767 0 12.252 5.486 12.252 12.252v11.052c.001 6.766-5.485 12.252-12.252 12.252z"/><path d="m168.612 435.912h174.576v33h-174.576z"/></g><path d="m116.349 163.884 6.947 27.324 34.208 254.749c.612 4.554 4.498 7.954 9.093 7.954h178.603c4.595 0 8.482-3.399 9.093-7.954l34.208-254.749 6.242-27.324z" fill="#d8efa7"/><g><path d="m165.538 163.884h-8.121-41.068l6.947 27.324 34.208 254.749c.612 4.554 4.498 7.954 9.093 7.954h178.604c4.595 0 8.482-3.4 9.093-7.954l2.749-20.471h-136.373c-11.453 0-21.14-8.473-22.665-19.825l-22.637-168.579c-1.839-13.696 8.813-25.875 22.632-25.875h187.818l2.686-20 6.242-27.324h-229.208z" fill="#c5e97d"/><path d="m393.882 191.209h-275.964c-6.767 0-12.252-5.486-12.252-12.252v-13.969c0-6.767 5.486-12.252 12.252-12.252h275.964c6.767 0 12.252 5.486 12.252 12.252v13.969c0 6.766-5.485 12.252-12.252 12.252z" fill="#fcf0b6"/></g></g><g><path d="m492.068 172.184h-55.958c-4.142 0-7.5 3.358-7.5 7.5s3.358 7.5 7.5 7.5h55.958c2.621 0 4.752 2.132 4.752 4.752v10.533c0 2.621-2.132 4.752-4.752 4.752h-75.755c-4.142 0-7.5 3.358-7.5 7.5s3.358 7.5 7.5 7.5h63.377l-30.013 223.5c-.057.422-.421.741-.848.741h-65.563c-4.142 0-7.5 3.358-7.5 7.5s3.358 7.5 7.5 7.5h56.23v11.34c0 4.281-3.483 7.764-7.764 7.764h-82.409c.882-2.424 1.365-5.038 1.365-7.764v-12.341c5.776-2.032 10.188-7.161 11.04-13.505l33.343-248.307c10.337-.62 18.563-9.202 18.563-19.692v-13.969c0-10.892-8.861-19.752-19.752-19.752h-275.964c-10.891 0-19.752 8.861-19.752 19.752v13.969c0 10.49 8.226 19.072 18.562 19.692l33.344 248.308c.852 6.344 5.264 11.473 11.04 13.505v12.341c0 2.725.483 5.34 1.365 7.764h-82.389c-4.281 0-7.764-3.483-7.764-7.764v-11.34h56.23c4.142 0 7.5-3.358 7.5-7.5s-3.358-7.5-7.5-7.5h-65.563c-.427 0-.791-.319-.848-.742l-5.434-40.461c-.551-4.105-4.319-6.986-8.431-6.435-4.105.551-6.986 4.326-6.435 8.431l5.433 40.461c.788 5.869 4.775 10.656 10.048 12.69v12.396c0 12.552 10.212 22.764 22.764 22.764h351.645c12.552 0 22.764-10.212 22.764-22.764v-12.396c5.274-2.035 9.261-6.822 10.048-12.69l30.31-225.715c9.574-1.361 16.967-9.589 16.967-19.532v-10.533c-.002-10.892-8.863-19.753-19.754-19.753zm-360.197 26.525h195.336c4.142 0 7.5-3.358 7.5-7.5s-3.358-7.5-7.5-7.5h-209.289c-2.62 0-4.752-2.132-4.752-4.752v-13.969c0-2.621 2.132-4.752 4.752-4.752h275.964c2.621 0 4.752 2.132 4.752 4.752v13.969c0 2.621-2.132 4.752-4.752 4.752h-34.712c-4.142 0-7.5 3.358-7.5 7.5s3.358 7.5 7.5 7.5h20.76l-33.067 246.25c-.111.828-.825 1.453-1.661 1.453h-2.013-174.577-2.013c-.835 0-1.549-.625-1.661-1.452zm52.004 281.857c-4.281 0-7.764-3.483-7.764-7.764v-11.391h159.577v11.391c0 4.281-3.483 7.764-7.764 7.764z"/><path d="m45.982 381.728c4.105-.551 6.986-4.326 6.435-8.431l-20.287-151.075h63.377c4.142 0 7.5-3.358 7.5-7.5s-3.358-7.5-7.5-7.5h-75.755c-2.621 0-4.752-2.132-4.752-4.752v-10.533c0-2.621 2.132-4.752 4.752-4.752h55.958c4.142 0 7.5-3.358 7.5-7.5s-3.358-7.5-7.5-7.5h-55.958c-10.891-.001-19.752 8.86-19.752 19.752v10.533c0 9.944 7.393 18.172 16.967 19.532l20.584 153.291c.506 3.767 3.725 6.503 7.424 6.503.332-.001.669-.023 1.007-.068z"/><path d="m233.298 34.83c7.466-2.373 15.243-3.576 23.112-3.576 42.032 0 76.228 34.195 76.228 76.228 0 4.58-.433 9.255-1.288 13.896-.75 4.074 1.944 7.984 6.018 8.734.459.084.916.125 1.367.125 3.548 0 6.702-2.529 7.367-6.144 1.019-5.534 1.536-11.123 1.536-16.612 0-50.303-40.924-91.228-91.228-91.228-9.414 0-18.718 1.44-27.655 4.28-3.948 1.255-6.131 5.472-4.876 9.419 1.254 3.949 5.471 6.13 9.419 4.878z"/><path d="m174.085 130.237c.451 0 .908-.041 1.367-.125 4.074-.75 6.768-4.66 6.018-8.734-.854-4.641-1.288-9.316-1.288-13.896 0-22.748 10.054-44.138 27.584-58.686 3.188-2.646 3.627-7.374.982-10.561-2.646-3.188-7.375-3.627-10.561-.982-20.975 17.407-33.005 43.004-33.005 70.229 0 5.489.517 11.078 1.536 16.612.666 3.614 3.82 6.143 7.367 6.143z"/><path d="m362.653 90.665c1.341.992 2.904 1.471 4.454 1.471 2.297 0 4.564-1.052 6.036-3.041 23.232-31.408 60.427-50.16 99.494-50.16h7.699c4.142 0 7.5-3.358 7.5-7.5s-3.358-7.5-7.5-7.5h-7.699c-43.803 0-85.505 21.024-111.554 56.24-2.463 3.33-1.76 8.026 1.57 10.49z"/><path d="m75.435 73.912c1.464 1.464 3.384 2.197 5.303 2.197s3.839-.732 5.303-2.197c2.929-2.929 2.929-7.678 0-10.606l-5.363-5.363c21.72.331 43.003 6.364 61.663 17.53 1.207.722 2.533 1.065 3.844 1.065 2.551 0 5.038-1.302 6.443-3.65 2.126-3.555.969-8.16-2.585-10.287-21.006-12.569-44.974-19.337-69.429-19.659l5.426-5.426c2.929-2.929 2.929-7.678 0-10.606-2.929-2.929-7.678-2.929-10.606 0l-15.888 15.887c-2.034 2.034-3.154 4.737-3.154 7.613s1.121 5.581 3.154 7.613z"/></g></g></svg>